<?xml version="1.0" encoding="UTF-8" standalone="no"?>
<!-- Created with Inkscape (http://www.inkscape.org/) -->

<svg
   version="1.1"
   id="svg2"
   width="682.66669"
   height="682.66669"
   viewBox="0 0 682.66669 682.66669"
   sodipodi:docname="offline.svg"
   inkscape:version="1.1.2 (1:1.1+202202050950+0a00cf5339)"
   xmlns:inkscape="http://www.inkscape.org/namespaces/inkscape"
   xmlns:sodipodi="http://sodipodi.sourceforge.net/DTD/sodipodi-0.dtd"
   xmlns="http://www.w3.org/2000/svg"
   xmlns:svg="http://www.w3.org/2000/svg">
  <defs
     id="defs6" />
  <sodipodi:namedview
     id="namedview4"
     pagecolor="#ffffff"
     bordercolor="#666666"
     borderopacity="1.0"
     inkscape:pageshadow="2"
     inkscape:pageopacity="0.0"
     inkscape:pagecheckerboard="0"
     showgrid="false"
     inkscape:zoom="0.35009765"
     inkscape:cx="338.477"
     inkscape:cy="329.90796"
     inkscape:window-width="1366"
     inkscape:window-height="710"
     inkscape:window-x="0"
     inkscape:window-y="28"
     inkscape:window-maximized="1"
     inkscape:current-layer="g8" />
  <g
     inkscape:groupmode="layer"
     inkscape:label="Image"
     id="g8">
    <g
       id="g8310"
       inkscape:export-filename="/home/artatripamuda/Documents/learn/shafiyyamart/images/offline.png"
       inkscape:export-xdpi="96"
       inkscape:export-ydpi="96">
      <path
         style="fill:#fbd139;stroke-width:1.33333"
         d="m 93.359914,457.66462 c -2.552048,-1.2822 -6.002048,-4.37 -7.666667,-6.86178 l -3.026578,-4.53052 V 340.11537 c 0,-120.31519 -0.698205,-112.59655 10.71451,-118.4487 l 5.850531,-3 h 283.84932 c 314.43137,0 289.37049,-0.7196 295.94525,8.49772 l 2.97374,4.16895 v 108 108.00001 l -2.97374,4.16895 c -6.57514,9.21782 18.55421,8.49794 -296.56111,8.49565 -268.16238,-10e-4 -284.731092,-0.13568 -289.105256,-2.33333 z M 166.00971,399.5316 c 3.672,-1.70996 8.69707,-5.41047 11.16679,-8.22333 8.59664,-9.79103 8.82351,-11.04167 8.82351,-48.64159 v -34 l -4.13638,-7.33334 c -12.91869,-22.90344 -42.86733,-25.11329 -58.71727,-4.33262 -6.38959,8.3773 -7.43837,15.9983 -6.89106,50.07383 0.52805,32.87614 1.004,35.07497 9.66807,44.66506 10.12121,11.20298 26.0942,14.3078 40.08634,7.79199 z m -23.31647,-13.79219 c -2.55204,-1.32333 -6.00204,-4.4448 -7.66666,-6.93657 C 132.09955,374.42133 132,373.26585 132,343.67101 c 0,-34.37987 0.63104,-37.37137 8.9704,-42.52539 8.62434,-5.33013 20.12122,-3.01869 26.36294,5.30026 2.45773,3.27565 2.69815,5.98208 3.06841,34.54178 0.34714,26.77566 0.0983,31.62723 -1.83105,35.69294 -4.56224,9.6142 -16.64757,13.84487 -25.87746,9.05881 z m 72.5645,13.96392 c 1.69479,-2.41965 2.0756,-7.43453 2.0756,-27.33333 v -24.36999 h 14.89501 c 16.57425,0 19.77166,-1.31493 19.77166,-8.13104 0,-6.33051 -3.96817,-7.86896 -20.29668,-7.86896 h -14.36999 v -15.23003 -15.23002 l 18.11033,-0.43664 c 16.09771,-0.38812 18.32034,-0.72427 20.00001,-3.02482 2.50818,-3.43533 2.38881,-7.31697 -0.31699,-10.30684 -1.9762,-2.18366 -4.62189,-2.43832 -25.33334,-2.43832 -21.3489,0 -23.33166,0.20499 -25.79334,2.66667 -2.57728,2.57728 -2.66667,4.44444 -2.66667,55.70332 0,58.53856 0.0576,58.96335 8,58.96335 2.46573,0 4.59465,-1.06487 5.9244,-2.96335 z m 68.4756,1.36335 c 1.13391,-1.13391 1.6,-9.09629 1.6,-27.33333 V 348.00001 H 300.37 c 11.4514,0 15.74322,-0.49489 18,-2.0756 3.38373,-2.37005 3.83786,-6.88369 1.07353,-10.66956 -1.65495,-2.26649 -3.89215,-2.64348 -18,-3.03317 l -16.11019,-0.445 v -15.22167 -15.22167 h 17.39394 c 16.68986,0 17.52642,-0.13253 20.66666,-3.27273 3.97011,-3.97009 4.12502,-6.54165 0.60607,-10.0606 -2.4596,-2.4596 -4.44444,-2.66667 -25.56168,-2.66667 -19.43295,0 -23.26372,0.33368 -25.33333,2.20666 -2.28626,2.06902 -2.43832,5.59704 -2.43832,56.57143 0,47.64474 0.25898,54.62377 2.09524,56.46001 2.47954,2.47955 8.70606,2.7606 10.97142,0.49524 z m 113.33334,0 c 2.2878,-2.2878 1.97453,-7.77617 -0.60665,-10.62835 -1.94899,-2.1536 -4.51784,-2.43832 -22,-2.43832 h -19.79335 v -49.56168 c 0,-44.24656 -0.23664,-49.82317 -2.20665,-52 -2.70811,-2.99243 -7.555,-3.15287 -10.36478,-0.34308 -1.83781,1.83781 -2.09524,8.93103 -2.09524,57.73334 0,41.49629 0.40668,56.04477 1.6,57.23809 2.25958,2.25957 53.2071,2.25957 55.46667,0 z m 28.94591,-1.5654 c 1.80785,-2.75915 2.0257,-10.21703 1.6974,-58.10839 -0.3607,-52.61623 -0.48624,-55.02309 -2.96482,-56.8346 -3.78474,-2.76615 -8.299,-2.31271 -10.66956,1.07173 -1.79654,2.56494 -2.0756,10.30387 -2.0756,57.56169 0,48.93322 0.22896,54.85133 2.20666,57.03665 3.18336,3.51757 9.27034,3.14271 11.80592,-0.72708 z m 33.24516,0.20205 c 1.75003,-2.49852 2.08588,-8.61592 2.14116,-39 l 0.0656,-36.03665 19.60111,38.66667 c 18.98557,37.45242 19.73193,38.6794 23.7672,39.072 8.68214,0.84473 8.50057,2.11346 8.50057,-59.39559 0,-49.741 -0.22777,-55.71814 -2.20665,-57.90476 -2.39603,-2.64758 -6.62176,-3.1372 -9.79335,-1.13472 -1.67592,1.05814 -2.10803,7.48252 -2.66667,39.64625 l -0.6667,38.38348 -20,-39.33333 c -19.4368,-38.22572 -20.11842,-39.34483 -24.20526,-39.74159 -8.45062,-0.82041 -8.46141,-0.74359 -8.46141,60.26662 0,48.93322 0.22896,54.85133 2.20665,57.03665 3.08222,3.4058 9.15507,3.13371 11.71775,-0.52503 z m 125.80894,1.36335 c 2.26536,-2.26536 1.9843,-8.49188 -0.49524,-10.97143 -1.69672,-1.69672 -5.50072,-2.09524 -20,-2.09524 h -17.90476 v -20 -20 h 15.33333 c 13.55556,0 15.64251,-0.30917 18,-2.66666 3.63769,-3.6377 3.34668,-7.27157 -0.84648,-10.5699 -3.06455,-2.41057 -5.36296,-2.76344 -18,-2.76344 h -14.48685 v -15.33333 -15.33334 l 16.33333,-0.0196 c 10.43272,-0.012 17.53753,-0.62582 19.66667,-1.69756 4.16902,-2.09857 5.14412,-8.1419 1.89329,-11.73402 -2.09888,-2.31928 -4.34979,-2.54882 -24.99496,-2.54882 -19.24065,0 -23.05888,0.33532 -25.12668,2.20666 -2.28695,2.06965 -2.43832,5.61249 -2.43832,57.06667 0,40.89112 0.4074,55.26741 1.6,56.46001 1.12658,1.12659 8.74075,1.6 25.73333,1.6 16.99259,0 24.60675,-0.47341 25.73334,-1.6 z"
         id="path955" />
      <path
         style="fill:#dfae23;stroke-width:1.33333;fill-opacity:1"
         d="m 332.9793,86.612644 c -12.28314,-3.048922 -22.39056,-11.190733 -27.78636,-22.382686 -4.61258,-9.56744 -4.38177,-23.808997 0.5486,-33.849209 15.01196,-30.57031254 58.03179,-29.64371928 72.03351,1.551512 3.89158,8.670283 3.79115,22.528136 -0.22853,31.532836 -7.49287,16.7852 -27.77016,27.316918 -44.56722,23.147547 z"
         id="path953" />
      <path
         style="fill:#dfae23;stroke-width:1.33333"
         d="M 11.067706,477.22646 C 7.0696921,475.24747 4.686889,472.83991 2.7343728,468.80655 0.04256743,463.24602 0,461.3772 0,348.76059 v -114.3975 l 2.912121,-5.18143 c 1.8559565,-3.30223 4.9100622,-6.1486 8.420966,-7.8482 5.144511,-2.49041 8.233319,-2.66679 46.703734,-2.66679 H 99.23171 l -5.850531,3 c -11.412715,5.85215 -10.71451,-1.86649 -10.71451,118.4487 v 106.15695 l 3.026578,4.53052 c 1.664619,2.49178 5.114619,5.58183 7.666667,6.86678 4.384573,2.20761 20.389266,2.31774 290.640096,2 l 286.00001,-0.33627 4.14626,-2.95757 c 2.28044,-1.62667 5.11677,-4.92667 6.30297,-7.33334 l 2.15672,-4.37576 0.0304,9.24571 c 0.0409,12.45251 -3.35755,19.57464 -11.13741,23.34081 l -5.6742,2.74682 -324.57904,-0.001 -324.579053,-10e-4 z"
         id="path951" />
      <path
         style="fill:#31c06d;stroke-width:1.33333;fill-opacity:1"
         d="m 325.00001,675.03549 c 2.38333,-0.29576 6.28333,-0.29576 8.66667,0 2.38333,0.29577 0.43333,0.53777 -4.33334,0.53777 -4.76666,0 -6.71666,-0.242 -4.33333,-0.53777 z m 24,0 c 2.38334,-0.29576 6.28334,-0.29576 8.66667,0 2.38333,0.29577 0.43333,0.53777 -4.33333,0.53777 -4.76667,0 -6.71667,-0.242 -4.33334,-0.53777 z m -42.66667,-1.25184 c 0.91667,-0.36988 2.41667,-0.36988 3.33334,0 0.91666,0.36988 0.16666,0.67252 -1.66667,0.67252 -1.83333,0 -2.58333,-0.30264 -1.66667,-0.67252 z m 66.75001,-0.0277 c 0.96249,-0.38516 2.1125,-0.3378 2.55556,0.1052 0.44305,0.44305 -0.34446,0.75818 -1.75,0.70029 -1.55327,-0.064 -1.8692,-0.37992 -0.80556,-0.80555 z m -77.33334,-1.33334 c 0.96249,-0.38516 2.11249,-0.3378 2.55556,0.1052 0.44305,0.44306 -0.34445,0.75819 -1.75,0.7003 -1.55327,-0.064 -1.8692,-0.37992 -0.80556,-0.80555 z m 105.33334,-2.66666 c 0.96249,-0.38516 2.1125,-0.3378 2.55556,0.1052 0.44305,0.44305 -0.34446,0.75818 -1.75,0.70029 -1.55327,-0.064 -1.8692,-0.37992 -0.80556,-0.80555 z m 84.76356,-28.17483 c 0.73559,-1.1902 -3.59952,-1.58107 -17.53579,-1.58107 -17.48001,0 -18.66917,-0.16738 -21.31318,-3 -3.85047,-4.12515 -4.96926,-9.57411 -2.96116,-14.42209 2.7075,-6.5365 7.10962,-7.91124 25.33292,-7.91124 16.09298,0 16.18705,-0.0183 20.06621,-3.89744 6.31577,-6.31576 5.03283,-15.4013 -2.74253,-19.4221 -3.20711,-1.65845 -10.62287,-2.0138 -42.0267,-2.0138 -41.89541,0 -44.0476,-0.3569 -47.97743,-7.95636 -3.87946,-7.50206 -1.46584,-17.98146 4.99123,-21.67078 2.18763,-1.24992 14.69497,-1.88447 46.7703,-2.37286 l 43.7841,-0.66666 3.2159,-3.74102 c 3.69516,-4.29853 4.07266,-8.73462 1.21377,-14.26312 -2.66592,-5.15531 -8.51116,-6.64583 -26.09879,-6.65509 -12.91565,-0.007 -14.3317,-0.2596 -16.84674,-3.00744 -1.51022,-1.65 -3.14126,-4.30596 -3.62455,-5.90214 -1.29705,-4.28384 2.50123,-12.21674 6.59452,-13.77301 2.17323,-0.82627 34.83457,-1.32485 86.78736,-1.32485 h 83.30275 l -3.61913,6.33333 c -23.42455,40.99202 -63.28458,82.62667 -104.49703,109.14936 -15.4505,9.94332 -34.14954,20.25605 -32.81603,18.09838 z M 132.66667,600.87387 C 109.48261,581.57021 78.830612,547.29758 67.591288,528.11175 l -2.408715,-4.11173 78.408707,0.0752 c 57.10553,0.0548 79.66409,0.50764 83.02922,1.66666 9.05419,3.11848 13.44268,15.22539 8.53212,23.53831 -4.64499,7.86339 -5.8034,8.05316 -49.15833,8.05316 h -39.59428 l -4.53334,4.53334 c -2.49333,2.49333 -4.53333,5.82313 -4.53333,7.39954 0,3.97122 3.51236,10.37899 6.59281,12.0276 1.41087,0.75507 10.05862,1.37286 19.21723,1.37286 15.96936,0 16.8202,0.1415 20.75432,3.45185 3.45081,2.90367 4.10231,4.39555 4.10231,9.39395 0,4.53109 -0.77714,6.71921 -3.27274,9.2148 -3.16674,3.16676 -3.88441,3.27273 -22.16325,3.27273 -16.64042,0 -18.69283,0.23823 -17.23068,2 3.09351,3.72744 0.69692,2.00075 -12.66667,-9.12615 z M 70.550224,166.29671 c 11.212481,-16.8175 26.779629,-35.2915 42.966286,-50.98936 14.56269,-14.12293 28.16675,-25.785448 26.021,-22.307347 -0.81211,1.31637 6.00325,1.666667 32.42663,1.666667 35.90197,0 40.21217,0.660397 44.52828,6.8225 1.20624,1.72215 2.17425,5.70275 2.17425,8.94084 0,4.85999 -0.75857,6.59524 -4.53333,10.36999 l -4.53333,4.53334 h -36.19955 c -39.7168,0 -42.2671,0.4354 -45.2895,7.73213 -1.932,4.66425 -0.81774,9.88079 2.81307,13.16973 2.20586,1.99817 5.72472,2.55027 19.74602,3.09814 13.97162,0.54592 17.54369,1.10372 19.72237,3.07979 3.36115,3.04856 4.38001,8.21888 2.61651,13.27769 -2.53839,7.28164 -5.27875,7.64252 -58.03277,7.64252 -36.381748,0 -48.201107,0.39749 -49.557948,1.66667 -0.979984,0.91666 1.329421,-2.99982 5.132012,-8.7033 z M 598.49661,149.66667 c -1.6585,-2.11474 -1.61134,-2.1619 0.50341,-0.50341 2.221,1.74183 2.92731,2.83675 1.82992,2.83675 -0.27687,0 -1.32687,-1.05 -2.33333,-2.33334 z m -12.62327,-15.33333 -2.53999,-3 3,2.53998 c 2.81926,2.38696 3.60699,3.46002 2.53999,3.46002 -0.25301,0 -1.60301,-1.35 -3,-3 z m -14.59011,-16 -6.61654,-7 7,6.61654 c 3.85,3.6391 7,6.7891 7,7 0,0.99492 -1.23524,-0.11201 -7.38346,-6.61654 z M 554.56577,103 l -3.23242,-3.666663 3.66667,3.232423 c 2.01667,1.77783 3.66667,3.42783 3.66667,3.66666 0,1.0457 -1.07974,0.19464 -4.10092,-3.23242 z M 142.66667,90.163263 c 0,-0.276875 1.05,-1.326875 2.33333,-2.333333 2.11475,-1.658495 2.16191,-1.611335 0.50342,0.503406 -1.74183,2.220998 -2.83675,2.927306 -2.83675,1.829927 z M 295.75001,25.755849 c 0.96249,-0.385161 2.11249,-0.337792 2.55556,0.105267 0.44305,0.443056 -0.34445,0.758188 -1.75,0.700293 -1.55327,-0.06397 -1.8692,-0.379921 -0.80556,-0.805556 z m 89.33334,0 c 0.96249,-0.385161 2.1125,-0.337792 2.55556,0.105267 0.44305,0.443056 -0.34446,0.758188 -1.75,0.700293 -1.55327,-0.06397 -1.8692,-0.379921 -0.80556,-0.805556 z"
         id="path949" />
      <path
         style="fill:#b5578e;stroke-width:1.33333"
         d="m 562.49661,109.66667 c -1.6585,-2.11474 -1.61134,-2.1619 0.50341,-0.50341 2.221,1.74183 2.92731,2.83674 1.82992,2.83674 -0.27687,0 -1.32687,-1.05 -2.33333,-2.33333 z"
         id="path947" />
      <path
         style="fill:#27ae60;stroke-width:1.33333;fill-opacity:1"
         d="m 320.66668,674.6149 c -56.28647,-3.2725 -112.21923,-22.14044 -160.2657,-54.06281 -8.2128,-5.45664 -15.29822,-10.51312 -15.74536,-11.23662 -0.51995,-0.84129 5.9656,-1.31545 17.99297,-1.31545 18.18904,0 18.91332,-0.10733 22.07868,-3.27273 2.4956,-2.49559 3.27274,-4.68371 3.27274,-9.2148 0,-4.9984 -0.6515,-6.49028 -4.10231,-9.39395 -3.93412,-3.31035 -4.78496,-3.45185 -20.75432,-3.45185 -9.15861,0 -17.80636,-0.61779 -19.21723,-1.37286 -3.08045,-1.64861 -6.59281,-8.05638 -6.59281,-12.0276 0,-1.57641 2.04,-4.90621 4.53333,-7.39954 l 4.53334,-4.53334 h 39.59428 c 43.35493,0 44.51334,-0.18977 49.15833,-8.0531 4.91056,-8.31292 0.52207,-20.41983 -8.53212,-23.53831 -3.36476,-1.15891 -25.89348,-1.61187 -82.89502,-1.66667 l -78.274518,-0.0753 -5.233049,-9 c -5.340874,-9.18544 -17.551245,-33.05255 -17.551245,-34.3067 0,-0.38132 134.396422,-0.6933 298.658702,-0.6933 h 298.65871 l -6.96267,14 -6.96267,14 h -82.94256 c -51.71422,0 -84.25455,0.49881 -86.42719,1.32485 -4.09329,1.55627 -7.89157,9.48917 -6.59452,13.77301 0.48329,1.59618 2.11433,4.25214 3.62455,5.90214 2.51504,2.74784 3.93109,3.00062 16.84674,3.00744 17.58763,0.009 23.43287,1.49978 26.09879,6.65509 2.85889,5.5285 2.48139,9.96459 -1.21377,14.26312 l -3.2159,3.74102 -43.7841,0.66666 c -32.07533,0.48839 -44.58267,1.12294 -46.7703,2.37286 -6.45707,3.68932 -8.87069,14.16872 -4.99123,21.67078 3.92983,7.59946 6.08202,7.95636 47.97743,7.95636 31.40383,0 38.81959,0.35535 42.0267,2.0138 7.77536,4.0208 9.0583,13.10634 2.74253,19.4221 -3.87916,3.87917 -3.97323,3.89744 -20.06621,3.89744 -11.53118,0 -17.24322,0.55561 -19.91476,1.93712 -7.33226,3.79166 -8.57343,14.66836 -2.34188,20.5226 2.68064,2.51832 4.81573,2.83145 21.5975,3.16744 l 18.62279,0.37284 -9.33333,4.45384 c -32.01607,15.27796 -75.59811,26.83233 -108.81746,28.84941 -25.52329,1.54979 -31.57024,1.63018 -48.51588,0.64496 z M 42.666668,217.89911 c 0,-1.41324 15.838818,-31.82004 19.915177,-38.23244 l 4.026093,-6.33333 h 48.072192 c 53.07485,0 55.78856,-0.35556 58.3288,-7.64252 1.7635,-5.05881 0.74464,-10.22913 -2.61651,-13.27769 -2.17868,-1.97607 -5.75075,-2.53387 -19.72237,-3.07979 -14.0213,-0.54787 -17.54016,-1.09997 -19.74602,-3.09814 -3.63081,-3.28894 -4.74507,-8.50548 -2.81307,-13.16973 3.0224,-7.29673 5.5727,-7.73213 45.2895,-7.73213 h 36.19955 L 214.13334,120.8 c 3.77476,-3.77475 4.53333,-5.51 4.53333,-10.36999 0,-3.23809 -0.96801,-7.21869 -2.17425,-8.94084 -4.31269,-6.157224 -8.6264,-6.819019 -44.78292,-6.870451 L 138,94.570769 l 4,-3.361697 c 8.4307,-7.085362 33.9799,-23.351646 48.66667,-30.984366 29.58076,-15.373136 63.17126,-26.780832 94.50045,-32.093368 9.07524,-1.538902 17.84996,-2.798004 19.49938,-2.798004 h 2.99895 l -2.83272,5.666667 c -2.22145,4.443867 -2.83272,8.112267 -2.83272,17.000001 0,9.882223 0.46667,12.160723 3.64472,17.795334 3.02172,5.357445 3.38677,6.9528 2.13564,9.333333 C 306.95037,76.707903 290.65336,105 271.56477,138 c -19.08859,33.00001 -37.3636,64.65001 -40.61115,70.33334 l -5.90463,10.33333 h -91.19116 c -50.155139,0 -91.191162,-0.3454 -91.191162,-0.76756 z m 208.508372,-2.8991 c 1.74149,-3.34288 21.96428,-38.58452 60.09742,-104.72998 l 14.44911,-25.063306 4.13923,1.063307 c 5.18077,1.330865 17.51569,1.378103 22.80588,0.08733 l 4,-0.97597 13.91455,24.309309 c 7.653,13.37012 24.85662,43.35931 38.23028,66.64264 l 24.31572,42.33333 h -91.93118 -91.93119 z m 204.34714,0.66666 c -2.29623,-3.67857 -27.1813,-46.5664 -58.83515,-101.39864 l -23.7064,-41.065311 3.84302,-6.934693 c 3.38984,-6.116913 3.84303,-8.271181 3.84303,-18.268024 0,-8.887734 -0.61127,-12.556134 -2.83272,-17.000001 l -2.83272,-5.666667 h 3.03356 c 6.47008,0 34.09415,5.442784 50.32195,9.914959 40.917,11.276205 78.94268,30.520071 114.30994,57.849456 6.23333,4.816692 19.43333,16.890161 29.33333,26.829941 26.06128,26.16598 43.85316,50.74568 60.13149,83.07232 l 7.88907,15.66666 H 548.7077 457.39483 Z"
         id="path945" />
      <path
         style="fill:#ffffff;stroke-width:1.33333"
         d="m 228.51257,213.00001 c 1.8104,-3.11667 6.18569,-10.61144 9.72288,-16.65506 3.53717,-6.04361 21.26251,-36.59146 39.38963,-67.88412 22.5704,-38.963038 33.22613,-56.198026 33.80785,-54.682093 0.4672,1.217503 3.78592,4.116406 7.37493,6.442006 3.58902,2.325601 6.52548,4.361063 6.52548,4.523248 0,0.162184 -11.98108,21.035039 -26.62461,46.384129 -14.64353,25.34909 -28.89353,50.18498 -31.66667,55.19086 -2.77313,5.00588 -8.04205,14.32801 -11.70872,20.71585 l -6.66666,11.61424 -11.72287,0.009 -11.72288,0.009 3.29164,-5.66667 z m 196.82272,-8.66667 c -4.50692,-7.88333 -21.84272,-38.03333 -38.524,-67 l -30.32958,-52.66667 3.42581,-1.822153 c 1.8842,-1.002184 5.36684,-3.661172 7.73919,-5.908862 2.37234,-2.247691 4.54612,-3.827723 4.83061,-3.511182 0.28448,0.316542 14.91552,25.47553 32.51341,55.908867 17.5979,30.43333 36.27413,62.63804 41.50274,71.566 5.2286,8.92797 9.50655,16.57797 9.50655,17 0,0.42204 -5.05582,0.76733 -11.23516,0.76733 h -11.23515 z"
         id="path943" />
    </g>
  </g>
</svg>
